<?xml version="1.0" encoding="UTF-8"?>
<!DOCTYPE svg PUBLIC "-//W3C//DTD SVG 1.1//EN" "http://www.w3.org/Graphics/SVG/1.1/DTD/svg11.dtd">
<!-- Creator: CorelDRAW 2019 (64-Bit) -->
<svg xmlns="http://www.w3.org/2000/svg" xml:space="preserve" width="215.9mm" height="99.8833mm" version="1.1" style="shape-rendering:geometricPrecision; text-rendering:geometricPrecision; image-rendering:optimizeQuality; fill-rule:evenodd; clip-rule:evenodd"
viewBox="0 0 21590.02 9988.33"
 xmlns:xlink="http://www.w3.org/1999/xlink"
 xmlns:xodm="http://www.corel.com/coreldraw/odm/2003">
 <defs>
  <style type="text/css">
   <![CDATA[
    .fil0 {fill:#D6E5E5}
   ]]>
  </style>
 </defs>
 <g id="Layer_x0020_1">
  <metadata id="CorelCorpID_0Corel-Layer"/>
  <path class="fil0" d="M5713.49 0l976.22 0c51.38,0 92.48,41.1 92.48,92.48l0 9793.08c0,51.38 -41.1,92.48 -92.48,92.48l-976.22 0.01c-51.38,0 -92.48,-41.1 -92.48,-92.48l-0.01 -9793.09c0,-51.38 41.1,-92.48 92.48,-92.48l0.01 0zm6720.54 8056.43l0 246.63c0,113.04 -20.55,256.9 -61.66,441.87 -30.83,174.69 -123.31,369.94 -287.73,544.63 -154.14,174.69 -380.21,339.11 -698.77,482.97 -318.56,123.31 -739.88,195.25 -1294.78,195.25 -554.9,0 -976.23,-71.93 -1294.78,-195.25 -318.55,-123.32 -534.36,-287.73 -698.77,-482.97 -154.14,-174.69 -256.9,-369.94 -287.73,-554.91 -30.83,-184.97 -61.66,-328.83 -61.66,-431.59l0 -5579.91c0,-51.38 41.1,-92.48 92.48,-92.48l976.23 0c51.38,0 92.48,41.1 92.48,92.48l0 5220.24c0,174.69 20.55,298.01 51.38,390.49 20.55,102.76 71.93,195.25 143.86,277.45 71.93,92.48 184.97,164.42 339.11,226.07 143.86,61.66 349.39,92.48 606.29,92.48 267.18,0 482.97,-30.83 637.12,-92.48 154.14,-61.66 277.45,-123.31 349.39,-215.8 82.21,-82.21 133.59,-174.69 164.42,-277.45 20.55,-102.76 61.66,-174.69 61.66,-421.32l-0.01 -5199.68c0,-51.38 41.1,-92.48 92.48,-92.48l976.23 0c51.38,0 92.48,41.1 92.48,92.48l10.28 5333.27 0 0.01zm3329.44 -5415.49l657.67 0c61.66,0 102.76,61.66 82.21,113.04l-226.07 852.91c-10.28,41.1 -51.38,71.93 -82.21,71.93l-462.42 0.01c-246.63,0 -441.87,30.83 -596.01,102.76 -143.86,71.93 -277.45,133.59 -349.39,226.07 -71.93,92.48 -123.31,174.69 -154.14,277.45 -20.55,102.76 -30.83,184.97 -30.83,277.45l0 5333.27c0,51.38 -41.1,92.48 -92.48,92.48l-986.51 0.02c-51.38,0 -92.48,-41.1 -92.48,-92.48l0 -5579.91c0,-102.76 20.55,-246.63 61.66,-431.59 30.83,-184.97 123.31,-369.94 287.73,-554.91 154.14,-174.69 380.21,-339.11 698.77,-482.97 308.28,-143.86 739.88,-205.52 1284.51,-205.52l-0.01 -0.01zm-13441.09 0c791.26,0 1387.27,154.14 1757.21,472.7 369.94,318.56 554.91,709.05 554.91,1181.75l0 4007.66c0,164.42 -30.83,339.11 -92.48,534.36 -61.66,195.25 -174.69,380.21 -339.11,534.36 -174.69,164.42 -411.04,298.01 -709.05,411.04 -298.01,113.04 -688.5,164.42 -1171.47,164.42 -482.97,0 -873.46,-61.66 -1171.47,-164.42 -298.01,-102.76 -534.36,-246.63 -709.05,-411.04 -174.69,-164.41 -287.74,-339.12 -339.12,-534.36 -61.66,-184.97 -102.76,-369.94 -102.76,-534.36l0 -637.12c0,-339.11 92.48,-657.67 267.18,-945.4 184.97,-277.44 431.59,-482.96 750.15,-596 164.42,-61.66 339.11,-113.04 554.91,-184.97 205.52,-71.93 411.04,-133.59 606.29,-215.8 195.25,-71.93 359.66,-123.31 513.8,-174.69 143.86,-61.66 236.35,-82.21 277.45,-102.76 30.83,-20.55 82.21,-41.1 133.59,-71.93 61.66,-30.83 113.04,-82.21 174.69,-133.59 61.66,-71.93 102.76,-133.59 133.59,-215.8 41.1,-82.21 61.66,-174.69 61.66,-287.73l0 -256.9c0,-92.48 -20.55,-174.69 -61.66,-277.45 -30.83,-102.76 -102.76,-174.69 -184.97,-267.18 -82.21,-82.21 -215.8,-143.86 -359.66,-195.25 -143.86,-51.39 -328.83,-71.93 -565.18,-71.93 -452.15,0 -750.15,92.48 -924.85,277.45 -133.59,164.42 -226.07,359.66 -236.35,585.74 0,51.38 -41.1,82.21 -92.48,82.21l-955.68 0c-51.38,0 -92.48,-41.1 -92.48,-92.48l0 -236.36c0,-226.07 41.1,-441.87 123.31,-637.12 82.21,-215.8 226.07,-390.49 421.32,-544.63 184.97,-143.86 431.59,-277.45 729.6,-349.39 287.73,-61.66 637.12,-113.04 1048.16,-113.04l0 0.01zm1171.47 3606.9c-20.55,92.48 -71.93,154.14 -133.59,205.52 -71.93,51.38 -133.59,71.93 -205.52,102.76 -133.59,51.38 -287.73,102.76 -441.87,154.14 -154.14,61.66 -308.28,113.04 -441.87,154.14 -164.42,61.66 -328.83,113.04 -462.42,164.42 -113.04,51.38 -215.8,113.04 -318.56,184.97 -82.21,71.93 -154.14,164.42 -226.07,277.45 -71.93,123.31 -102.76,256.9 -102.76,431.59 0,339.11 82.21,596.01 246.63,770.7 164.42,164.42 472.7,256.9 914.57,256.9 452.15,0 760.43,-92.48 935.12,-267.18 164.42,-174.69 246.63,-431.59 246.63,-750.15l-10.29 -1685.26zm15784.04 -3606.9c791.26,0 1387.27,154.14 1757.21,472.7 369.94,318.56 554.91,709.05 554.91,1181.75l0 4007.66c0,164.42 -30.83,339.11 -92.48,534.36 -61.66,195.25 -174.69,380.21 -339.11,534.36 -164.42,154.15 -411.04,298.01 -709.05,411.04 -298.01,113.04 -688.5,164.42 -1171.47,164.42 -482.97,0 -873.46,-61.66 -1171.47,-164.42 -298.01,-102.76 -534.36,-246.63 -709.05,-411.04 -174.69,-164.41 -287.73,-339.11 -339.11,-534.36 -61.66,-195.25 -92.48,-380.21 -92.48,-534.36l0 -637.12c0,-339.11 92.48,-657.67 267.18,-945.4 174.69,-277.45 431.59,-482.97 750.15,-596.01 164.42,-61.66 339.11,-113.04 554.91,-184.97 205.52,-71.93 411.04,-133.59 606.29,-215.8 195.25,-71.93 359.66,-123.31 513.8,-174.69 143.86,-61.66 236.35,-82.21 277.45,-102.76 30.83,-20.55 82.21,-41.1 133.59,-71.93 61.66,-30.83 113.04,-82.21 174.69,-133.59 61.66,-71.93 102.76,-133.59 133.59,-215.8 41.1,-82.21 61.66,-174.69 61.66,-287.73l0 -256.9c0,-92.48 -20.55,-174.69 -61.66,-277.45 -30.83,-102.76 -102.76,-174.69 -184.97,-267.18 -92.48,-82.21 -215.8,-143.86 -359.66,-195.25 -143.86,-51.39 -328.83,-71.93 -565.18,-71.93 -452.15,0 -750.15,92.48 -924.85,277.45 -133.59,164.42 -226.07,359.66 -236.35,585.74 0,51.38 -41.1,82.21 -92.48,82.21l-986.52 0.01c-51.38,0 -92.48,-41.1 -92.48,-92.48l-0.01 -236.36c0,-226.07 41.1,-441.87 123.31,-637.12 82.21,-195.25 226.07,-380.21 421.32,-534.36 184.97,-143.86 431.59,-277.45 729.6,-349.39 308.28,-71.93 657.67,-123.31 1068.71,-123.31l0.01 0.01zm1161.19 3606.9c-20.55,92.48 -71.93,154.14 -133.59,205.52 -71.93,51.38 -133.59,71.93 -205.52,102.76 -133.59,51.38 -287.73,102.76 -441.87,154.14 -154.14,61.66 -308.28,113.04 -441.87,154.14 -164.42,61.66 -328.83,113.04 -462.42,164.42 -113.04,51.38 -215.8,113.04 -318.56,184.97 -82.21,71.93 -154.14,164.42 -226.07,277.45 -71.93,113.04 -102.76,256.9 -102.76,431.59 0,339.11 82.21,596.01 246.63,770.7 164.42,164.42 472.7,256.9 914.57,256.9 452.15,0 760.43,-92.48 935.12,-267.18 164.42,-174.69 246.63,-431.59 246.63,-750.15l-10.28 -1685.27 -0.01 0.01z"/>
 </g>
</svg>
