<?xml version="1.0" encoding="UTF-8"?>
<!DOCTYPE svg PUBLIC "-//W3C//DTD SVG 1.1//EN" "http://www.w3.org/Graphics/SVG/1.1/DTD/svg11.dtd">
<!-- Creator: CorelDRAW 2019 (64-Bit) -->
<svg xmlns="http://www.w3.org/2000/svg" xml:space="preserve" width="1234.72mm" height="881.944mm" version="1.1" style="shape-rendering:geometricPrecision; text-rendering:geometricPrecision; image-rendering:optimizeQuality; fill-rule:evenodd; clip-rule:evenodd"
viewBox="0 0 123472.22 88194.44"
 xmlns:xlink="http://www.w3.org/1999/xlink"
 xmlns:xodm="http://www.corel.com/coreldraw/odm/2003">
 <defs>
  <style type="text/css">
   <![CDATA[
    .fil3 {fill:#002E73;fill-rule:nonzero}
    .fil12 {fill:#007880;fill-rule:nonzero}
    .fil13 {fill:#008F99;fill-rule:nonzero}
    .fil4 {fill:#231F20;fill-rule:nonzero}
    .fil0 {fill:#2E5B99;fill-rule:nonzero}
    .fil2 {fill:#3D73CC;fill-rule:nonzero}
    .fil1 {fill:#4582E6;fill-rule:nonzero}
    .fil5 {fill:#66B8FF;fill-rule:nonzero}
    .fil8 {fill:#73382A;fill-rule:nonzero}
    .fil9 {fill:#D9FFFF;fill-rule:nonzero}
    .fil7 {fill:#E6836F;fill-rule:nonzero}
    .fil6 {fill:#F7A594;fill-rule:nonzero}
    .fil11 {fill:#F7AF0C;fill-rule:nonzero}
    .fil10 {fill:white;fill-rule:nonzero}
   ]]>
  </style>
 </defs>
 <g id="Layer_x0020_1">
  <metadata id="CorelCorpID_0Corel-Layer"/>
  <path class="fil0" d="M57421.15 76909.83l-27105.39 0c-47.95,0 -86.79,-131.98 -86.79,-295.34 0,-162.95 38.84,-295.26 86.79,-295.26l27105.39 0c47.75,0 86.59,132.31 86.59,295.26 0,163.36 -38.84,295.34 -86.59,295.34z"/>
  <path class="fil1" d="M62728.06 61147.73c0,0 -2051.72,-66.75 -4073.15,29.96 -2100.04,102.6 -4170.19,380.26 -3874.18,1104.52 66.32,163.03 78.27,319.66 42,476.63 -422.35,1937.09 -8080.4,3385.6 -9769.87,2196.74 -1261.15,-887.28 -4737.48,253.26 -6161.24,868.85 -2712.51,-18155.28 -2788.01,-36714.65 -386.32,-38005.94 2401.69,-1285.47 9057.91,343.99 9057.91,343.99 0,0 3373.3,893.09 4749.09,10119.92 1381.84,9220.94 10415.76,22865.33 10415.76,22865.33z"/>
  <path class="fil2" d="M54780.73 62282.21c66.32,163.03 78.27,319.66 42,476.63 -2075.8,-6330.24 -6963.85,-24416.09 -5189.79,-19485.71 1701.85,4755.15 7042.54,14386.32 9021.97,17904.56 -2100.04,102.6 -4170.19,380.26 -3874.18,1104.52z"/>
  <path class="fil3" d="M38254.48 32618.76c-1973.45,2413.89 -2335.36,2999.1 -4182.06,3126.11 621.57,391.96 989.71,923.22 1243.06,1496.48l6.06 0c543.29,1188.85 621.56,2576.67 1569.11,3355.29l-1134.48 1116.13 -289.7 290.04c0,0 -42.34,-36.36 -114.63,-102.68 -494.9,-458.63 -2462.21,-2311.38 -3632.88,-4013.14 -687.98,-989.55 -1104.35,-1925.14 -814.73,-2510.43 470.74,-1701.68 1677.69,-5195.77 4749.26,-6239.77 2015.78,-2190.51 3988.81,-1013.78 4688.74,-102.51 935.6,1218.98 -5.97,3825.87 -2087.75,3584.48z"/>
  <path class="fil4" d="M36890.65 40596.64l-1134.48 1116.13 -404.33 187.36c-464.69,-434.55 -2238.83,-2100.04 -3421.71,-3717.55 -72.38,-96.29 -144.85,-198.97 -211.17,-295.59 585.29,-6.06 2468.1,-54.37 3596.52,-645.64l6.06 0c48.31,102.68 90.64,204.94 126.92,307.63 434.3,1110.57 573.34,2335.36 1442.19,3047.66z"/>
  <path class="fil5" d="M35448.46 37548.98c-1249.28,760.61 -2679.44,736.28 -3518.33,633.6 -72.38,-96.29 -144.85,-198.97 -211.17,-295.59 585.29,-6.06 2468.1,-54.37 3596.52,-645.64l6.06 0c48.31,102.68 90.64,204.94 126.92,307.63z"/>
  <path class="fil4" d="M36040.49 39566.19c0,0 1292.54,120.28 1683.83,460.39 326.65,284.32 127.01,639.25 127.01,639.25 695.63,391.2 0.25,1908.47 -1214.27,2282.76 -1214.69,374.62 -2010.57,-1913.1 -2010.57,-1913.1 0,0 185,-1387.82 1414,-1469.3z"/>
  <path class="fil4" d="M52348.32 76384.54l-4384.99 0c-90.39,-51.59 -157.05,-109.75 -196.53,-176.07 -225.81,-3261.45 -551.03,-4831.66 -551.03,-4831.66l3053.98 -124.15 691.42 2426.02c1023.05,699.25 2242.62,2199.6 1387.15,2705.86z"/>
  <path class="fil4" d="M47630.96 76443.46l5198.88 0c131.55,0 87.53,-723.24 -44.44,-723.24l-5167.49 29.29c-135.84,0 -122.37,693.95 13.05,693.95z"/>
  <path class="fil3" d="M45819.45 41650.41c709.43,1908.89 3728.91,10655.63 2867.04,16953.05 1185.65,4187.45 813.13,7734.64 1882.38,13850.76l-3112.13 163.71c-1265.11,-7461.95 -2657.14,-6038.19 -3060.04,-13427.83 -2564.3,-5794.35 -3894.3,-11283.94 -4576.97,-16935.04 -663.57,-4260.51 4567.12,-6497.82 5999.72,-604.65z"/>
  <path class="fil4" d="M47488.8 72936.08c0,0 -232.8,-2220.73 -1697.21,-6463.23 -454.42,-1303.48 -700.94,-2166.36 -829.04,-2697.36 -128.02,-537.24 -143.93,-742.18 -143.93,-742.18 771.89,-893.26 1751.59,-2239.08 2621.45,-3856.26 952.51,1490.51 2085.64,2981.35 2085.64,2981.35 0,0 28.96,349.96 80.47,923.22 229.69,2401.69 847.39,8749.94 1219.57,10095.76 459.63,1665.49 -2433.84,2613.03 -3336.95,-241.3z"/>
  <path class="fil5" d="M49606.18 63081.62c-497.09,-555.25 -1392.03,-1599.16 -2140.69,-2740.04 -339.36,1231.19 -1764.55,2722.03 -2502.94,3433.91 -128.02,-537.24 -143.93,-742.18 -143.93,-742.18 771.89,-893.26 1751.59,-2239.08 2621.45,-3856.26 952.51,1490.51 2085.64,2981.35 2085.64,2981.35 0,0 28.96,349.96 80.47,923.22z"/>
  <path class="fil3" d="M42138.93 42459.67c-219.76,8315.3 -1702.18,15378.3 -1702.18,15378.3 627.63,5672.98 -799.75,6730.28 -1444.21,14846.62l-2813.1 -37.37c-7.07,-3294.28 -198.21,-7373.82 -398.27,-13978.87 -1770.86,-6903.16 -917.92,-11987.32 -257.55,-16114.17 704.56,-4686.97 7064.76,-6238.16 6615.31,-94.51z"/>
  <path class="fil4" d="M38992.54 72684.59c250.81,1343.71 430.68,2392.18 325.55,3608.21l-6812.68 132.65c0,0 -674.34,-656.92 173.47,-1641.84 847.81,-985.33 2457.91,-415.19 3500.56,-2136.39l2813.1 37.37z"/>
  <path class="fil4" d="M32196.02 76443.46l7237.8 0c131.98,0 97.38,-723.24 -34.59,-723.24l-7207.17 29.29c-135.68,0 -131.72,693.95 3.96,693.95z"/>
  <path class="fil4" d="M40345.43 63509.86c0,0 -48.73,241.72 -131.64,651.95 -342.47,1792.07 -1261.9,6794.84 -1154.26,9045.62 -1278.82,1526.78 -2941.11,-169.01 -2941.11,-169.01l-669.96 -12364.89 -45.79 -832.49c1803.69,2003.42 3677.32,3071.57 4942.76,3668.82z"/>
  <path class="fil5" d="M40345.43 63509.86c0,0 -48.73,241.72 -131.64,651.95 -2484.59,-724.25 -4014.57,-2426.01 -4765.33,-3488.28l-45.79 -832.49c1803.69,2003.42 3677.32,3071.57 4942.76,3668.82z"/>
  <path class="fil3" d="M35733.19 42066.69c0,1437.9 10211.83,1021.61 10211.83,-416.28 -34.17,-2372.49 292.82,-4324.73 739.07,-5939.04 3061.8,-2999.36 2879.08,-5327.48 2103.32,-6590.65 -1337.74,-2177.98 -8095.97,-2054.5 -10529.06,-1118.41 -966.23,371.85 -2263.4,1886.43 -2678.59,4300.91 -213.45,1241.37 700.6,2686.93 845.2,3690.36 334.14,2322.32 -623.68,5739.31 -691.77,6073.11z"/>
  <path class="fil6" d="M42099.04 28990.43c503.82,-400.21 2513.54,-1017.66 3048,-1455.32l-120.61 -3488.87 -1975.89 -192.4c-573.26,47.55 -1146.6,184.91 -1639.4,379.5l-444.81 2297.24 -98.14 498.18c-223.63,490.27 219.84,1081.54 1230.85,1961.67z"/>
  <path class="fil7" d="M44361.43 24836.14c-309.73,477.14 -1607.58,1698.73 -3395.1,1694.44l384.89 -1987.51 3010.21 293.07z"/>
  <path class="fil6" d="M39987.72 20240.32c-154.86,687.39 -474.11,2196.32 -421.92,2891.28 79.36,1058.06 1067.48,2231.68 1929.34,2385.62 997.63,101.67 2342.78,-195.35 3073,-822.81 406.44,-476.22 1192.73,-1606.07 1554.73,-2595.02 755.31,-2062.92 -702.37,-3871.74 -2551.68,-4289.63 -1849.22,-417.8 -3100.18,287.68 -3583.47,2430.56z"/>
  <path class="fil8" d="M45503.74 23462.12c385.56,-678.71 -127.01,-953.69 -688.65,-426.8 95.95,-512.07 679.81,-2012.76 162.61,-2510.27 -584.12,-577.38 -3154.48,-326.14 -4535.65,-1765.98 0,0 1029.44,-2256.84 4407.63,-924.06 3815.94,2023.19 654.06,5627.11 654.06,5627.11z"/>
  <path class="fil6" d="M45025.34 22816.82c-292.06,355.27 -304.43,826.51 -27.53,1052.59 276.99,226.15 738.06,121.45 1030.12,-233.82 292.14,-355.26 304.51,-826.51 27.52,-1052.67 -276.91,-226.07 -737.97,-121.37 -1030.11,233.9z"/>
  <path class="fil3" d="M40981.14 26329.42c337.93,603.14 3812.06,289.45 4125.75,-217.15l192.91 1930.11 -3232.83 1833.56 -1689.14 -1857.72 603.31 -1688.8z"/>
  <path class="fil4" d="M46690.48 19924.27c-95.27,-1689.3 -3365.14,-4073.4 -5710.77,-3188.31 -1581.83,596.91 -1210.74,2276.37 166.82,2593.51 1214.69,279.6 4578.73,-1176.4 5543.95,594.8z"/>
  <path class="fil4" d="M40687.99 16741.27c0,0 69.43,-481.77 329.51,-842 -1835.17,1202.23 -921.88,2639.88 -900.33,2701.07 727.79,-2210.05 2464.48,-2108.54 3081.16,-2100.71 -1586.45,-746.81 -2494.52,175.48 -2510.34,241.64z"/>
  <path class="fil5" d="M35605.85 42554.52c2663.78,1148.62 8818.03,895.7 10657.41,15.57l470.23 1558.18c-4001.52,943 -7829.92,969.42 -11464.39,-29.63l336.75 -1544.12z"/>
  <path class="fil3" d="M53431.37 38900.86c-1762.19,1888.78 -5479.32,4043.18 -5479.32,4043.18l-1140.62 -1641.49c1182.88,-651.62 1834.49,-2341.43 2963,-3499.9 386.32,-398.27 826.93,-730.31 1357.85,-947.63 -1798.47,-464.6 -2703.67,-911.18 -4200.15,-3644.82 -2094.15,-144.85 -2546.38,-2884.47 -1406.17,-3904.4 857.23,-766.42 3017.28,-1568.95 4598.43,953.52 2824.37,1586.96 4031.24,5050.91 4182.23,6813.02 138.62,500.96 -241.73,1146.6 -875.25,1828.52z"/>
  <path class="fil4" d="M47834.22 40443.54c0,0 -1292.96,-118.59 -1739.55,144.6 -373.28,219.84 -242.06,605.41 -242.06,605.41 -755.31,257.13 -348.87,1876.07 776.85,2466.24 1125.65,590.18 2326.2,-1513.73 2326.2,-1513.73 0,0 71.62,-1398.09 -1121.44,-1702.52z"/>
  <path class="fil4" d="M53431.37 38900.86c-108.66,114.63 -223.29,235.24 -343.98,349.88 -1858.4,1798.46 -5135.34,3693.3 -5135.34,3693.3l-1140.62 -1641.49c1019.93,-561.31 1641.5,-1888.78 2516.41,-2986.99 138.96,-180.95 289.62,-349.96 446.59,-512.91 440.61,259.24 1756.13,953.19 3656.94,1098.21z"/>
  <path class="fil5" d="M53431.37 38900.86c-108.66,114.63 -223.29,235.24 -343.98,349.88 -1593.19,-78.28 -3089.67,-651.54 -3759.55,-935.18 138.96,-180.95 289.62,-349.96 446.59,-512.91 440.61,259.24 1756.13,953.19 3656.94,1098.21z"/>
  <path class="fil9" d="M43082.94 31863.95l0 0c0.76,-5.97 1.1,-8.58 1.1,-9.17l-1.1 9.17z"/>
  <path class="fil9" d="M43082.94 31863.95l0 0c0.76,-5.97 1.1,-8.58 1.1,-9.17l-1.1 9.17z"/>
  <path class="fil9" d="M39893.12 31406.34l1.09 -9.17c0,0.59 -0.33,3.2 -1.09,9.17z"/>
  <path class="fil9" d="M39893.12 31406.34l1.09 -9.17c0,0.59 -0.33,3.2 -1.09,9.17z"/>
  <path class="fil10" d="M41599.51 30664.83c317.48,499.45 866.07,951.42 1481.33,1200.81 -5.3,47.3 -36.36,309.48 -178.18,1517.77 -189.38,1611.87 -1658.67,2194.98 -1886.59,2284.19 -193.67,-136.85 -1489.07,-1129.34 -1299.7,-2741.21 142.24,-1208.38 172.88,-1470.47 178.52,-1517.86 652.62,-67.33 1282.36,-350.47 1704.62,-743.7z"/>
  <path class="fil11" d="M41432.02 31520.98l-2.53 2.02c-306.53,242.31 -711.54,410.05 -1142.64,472.51l-121.37 1030.78c-55.38,471.67 64.22,921.79 355.27,1338 183.06,261.84 385.9,440.1 498.85,528.56 4.88,3.96 10.19,8 14.82,11.62 124.81,-50.5 372.85,-166.91 621.23,-377.41 377.82,-320.25 597.24,-721.72 652.62,-1193.39l121.37 -1030.79c-403.58,-182.56 -757.07,-459.97 -997.62,-781.9z"/>
  <path class="fil5" d="M40558.12 27502.7c173.21,445.41 751.44,837.71 1403.39,1220.08 1323.94,-216.73 2339.57,-626.7 3332.99,-1208.04 977.59,-4.55 1681.06,371.59 2404.55,649.17l-5772.13 939.39 -3390.56 -1280.01c450.88,-164.12 1096.43,-275.22 2021.76,-320.59z"/>
  <path class="fil9" d="M43359.51 39668.79c0,0 -0.67,-38.38 -0.67,-43.68 0,2.78 0.34,15.49 0.67,43.68z"/>
  <path class="fil9" d="M43359.51 39668.79c0,0 -0.67,-38.38 -0.67,-43.68 0,2.78 0.34,15.49 0.67,43.68z"/>
  <path class="fil10" d="M51808.56 34957.74c1998.87,2102.99 5176.99,3816.45 8570.42,4532.95 2.44,225.4 16.16,1473.51 80.37,7226.28 85.01,7673.96 -7227.37,11471.97 -8362.6,12055.16 -1106.96,-498.52 -8561.5,-4194.18 -8646.84,-11868.22 -63.88,-5752.36 -77.69,-7000.46 -80.13,-7225.94 3376.76,-790.92 6487.55,-2573.81 8438.78,-4720.23z"/>
  <path class="fil12" d="M51838.19 36344.64c1955.1,1761.77 4656.67,3138.98 7622.45,3879.82l72.38 6501.69c32.74,2975.36 -1136.67,5674.41 -3476.66,8023.24 -1537.39,1543.36 -3158.1,2504.71 -3981.08,2937.92 -35.6,-18.01 -74.48,-37.79 -112.86,-57.49l-141.15 -21270.03c5.64,-4.97 11.61,-9.93 16.92,-15.15z"/>
  <path class="fil13" d="M51821.27 36359.79l141.15 21270.03c-861.53,-438.84 -2428.2,-1347.67 -3932.43,-2791.88 -2391.17,-2296.99 -3620.58,-4969.61 -3653.75,-7944.89l-72.29 -6502.11c2940.01,-803.2 5603.12,-2233.78 7517.32,-4031.15z"/>
  <path class="fil10" d="M51046.18 47638.76c-3.11,-467.37 373.28,-846.96 842.84,-850.16 469.15,-2.86 853.7,371.84 856.9,838.88 2.11,341.47 -202.84,639.58 -496.75,773.66l9.51 1430.83c1.1,190.13 -153.1,349.29 -347.44,350.39 -190.89,1.34 -347.52,-155.63 -348.53,-345.76l-9.59 -1427.71c-298.8,-130.21 -504.83,-425.47 -506.94,-770.13zm-2602.76 -1884.48l33.5 5037.27c3.53,560.55 6883.8,515.44 6879.93,-45.19l-33.58 -5037.28 -6879.85 45.2z"/>
  <path class="fil10" d="M49043.19 45391.27l696.31 -4.63 -2.11 -339.03c-7.74,-1175.46 946.54,-2137.82 2126.89,-2145.57 1180.77,-7.74 2147.76,942.25 2155.5,2117.38l2.11 339.02 696.39 -4.29 -2.11 -339.36c-10.26,-1557.5 -1291.53,-2816.21 -2856.44,-2805.94 -1564.57,10.18 -2828.91,1285.81 -2818.73,2843.39l2.19 339.03z"/>
 </g>
</svg>
